<mxfile host="app.diagrams.net" agent="Mozilla/5.0 (Windows NT 10.0; Win64; x64) AppleWebKit/537.36 (KHTML, like Gecko) Chrome/130.0.0.0 Safari/537.36" version="24.8.3" pages="3">
  <diagram name="Page-1" id="HoTeQliU5uY-s0nehp8D">
    <mxGraphModel dx="1500" dy="746" grid="1" gridSize="10" guides="1" tooltips="1" connect="1" arrows="1" fold="1" page="1" pageScale="1" pageWidth="850" pageHeight="1100" math="0" shadow="0">
      <root>
        <mxCell id="0" />
        <mxCell id="1" parent="0" />
        <mxCell id="frCaHSFpNqn36aPM4y6u-1" value="Sistem Informasi Perpusatakaan&amp;nbsp;" style="ellipse;whiteSpace=wrap;html=1;aspect=fixed;" vertex="1" parent="1">
          <mxGeometry x="330" y="290" width="120" height="120" as="geometry" />
        </mxCell>
        <mxCell id="frCaHSFpNqn36aPM4y6u-3" value="Anggota" style="rounded=0;whiteSpace=wrap;html=1;" vertex="1" parent="1">
          <mxGeometry x="70" y="330" width="120" height="60" as="geometry" />
        </mxCell>
        <mxCell id="frCaHSFpNqn36aPM4y6u-4" value="Admin Sistem" style="rounded=0;whiteSpace=wrap;html=1;" vertex="1" parent="1">
          <mxGeometry x="560" y="330" width="120" height="60" as="geometry" />
        </mxCell>
        <mxCell id="frCaHSFpNqn36aPM4y6u-5" value="" style="endArrow=classic;html=1;rounded=0;exitX=1;exitY=0.25;exitDx=0;exitDy=0;entryX=0.033;entryY=0.407;entryDx=0;entryDy=0;entryPerimeter=0;" edge="1" parent="1" source="frCaHSFpNqn36aPM4y6u-3" target="frCaHSFpNqn36aPM4y6u-1">
          <mxGeometry width="50" height="50" relative="1" as="geometry">
            <mxPoint x="320" y="390" as="sourcePoint" />
            <mxPoint x="370" y="340" as="targetPoint" />
          </mxGeometry>
        </mxCell>
        <mxCell id="frCaHSFpNqn36aPM4y6u-6" value="" style="endArrow=classic;html=1;rounded=0;exitX=-0.005;exitY=0.683;exitDx=0;exitDy=0;exitPerimeter=0;entryX=1;entryY=0.75;entryDx=0;entryDy=0;" edge="1" parent="1" source="frCaHSFpNqn36aPM4y6u-1" target="frCaHSFpNqn36aPM4y6u-3">
          <mxGeometry width="50" height="50" relative="1" as="geometry">
            <mxPoint x="320" y="390" as="sourcePoint" />
            <mxPoint x="370" y="340" as="targetPoint" />
          </mxGeometry>
        </mxCell>
        <mxCell id="frCaHSFpNqn36aPM4y6u-7" value="" style="endArrow=classic;html=1;rounded=0;exitX=0;exitY=0.25;exitDx=0;exitDy=0;entryX=1;entryY=0.5;entryDx=0;entryDy=0;" edge="1" parent="1" source="frCaHSFpNqn36aPM4y6u-4" target="frCaHSFpNqn36aPM4y6u-1">
          <mxGeometry width="50" height="50" relative="1" as="geometry">
            <mxPoint x="320" y="390" as="sourcePoint" />
            <mxPoint x="370" y="340" as="targetPoint" />
          </mxGeometry>
        </mxCell>
        <mxCell id="frCaHSFpNqn36aPM4y6u-8" value="" style="endArrow=classic;html=1;rounded=0;exitX=1;exitY=1;exitDx=0;exitDy=0;entryX=0;entryY=1;entryDx=0;entryDy=0;" edge="1" parent="1" source="frCaHSFpNqn36aPM4y6u-1" target="frCaHSFpNqn36aPM4y6u-4">
          <mxGeometry width="50" height="50" relative="1" as="geometry">
            <mxPoint x="570" y="355" as="sourcePoint" />
            <mxPoint x="460" y="360" as="targetPoint" />
          </mxGeometry>
        </mxCell>
        <mxCell id="frCaHSFpNqn36aPM4y6u-9" value="Data Login&lt;div&gt;Data Pendaftaran&lt;/div&gt;&lt;div&gt;Data Peminjam&lt;/div&gt;&lt;div&gt;Data pengembalian&lt;/div&gt;&lt;div&gt;&lt;br&gt;&lt;/div&gt;" style="text;html=1;align=center;verticalAlign=middle;whiteSpace=wrap;rounded=0;" vertex="1" parent="1">
          <mxGeometry x="200" y="270" width="130" height="30" as="geometry" />
        </mxCell>
        <mxCell id="frCaHSFpNqn36aPM4y6u-10" value="Data Login&lt;div&gt;Data Pendaftaran&lt;/div&gt;&lt;div&gt;Data Buku&lt;/div&gt;&lt;div&gt;Data Peminjam&lt;/div&gt;&lt;div&gt;Data pengembalian&lt;/div&gt;&lt;div&gt;&lt;br&gt;&lt;/div&gt;" style="text;html=1;align=center;verticalAlign=middle;whiteSpace=wrap;rounded=0;" vertex="1" parent="1">
          <mxGeometry x="440" y="270" width="130" height="30" as="geometry" />
        </mxCell>
        <mxCell id="frCaHSFpNqn36aPM4y6u-11" value="Info Login&lt;div&gt;Info Pendaftaran&lt;/div&gt;&lt;div&gt;Info Peminjam&lt;/div&gt;&lt;div&gt;Info pengembalian&lt;/div&gt;&lt;div&gt;&lt;br&gt;&lt;/div&gt;" style="text;html=1;align=center;verticalAlign=middle;whiteSpace=wrap;rounded=0;" vertex="1" parent="1">
          <mxGeometry x="190" y="430" width="130" height="30" as="geometry" />
        </mxCell>
        <mxCell id="frCaHSFpNqn36aPM4y6u-12" value="Info Login&lt;div&gt;Info Pendaftaran&lt;/div&gt;&lt;div&gt;Info Peminjam&lt;/div&gt;&lt;div&gt;&lt;div&gt;Info Buku&lt;/div&gt;&lt;/div&gt;&lt;div&gt;Info pengembalian&lt;/div&gt;&lt;div&gt;&lt;br&gt;&lt;/div&gt;" style="text;html=1;align=center;verticalAlign=middle;whiteSpace=wrap;rounded=0;" vertex="1" parent="1">
          <mxGeometry x="440" y="420" width="130" height="30" as="geometry" />
        </mxCell>
      </root>
    </mxGraphModel>
  </diagram>
  <diagram id="HC5erW16EKHKAfDjmSi-" name="Page-2">
    <mxGraphModel dx="636" dy="316" grid="1" gridSize="10" guides="1" tooltips="1" connect="1" arrows="1" fold="1" page="1" pageScale="1" pageWidth="850" pageHeight="1100" math="0" shadow="0">
      <root>
        <mxCell id="0" />
        <mxCell id="1" parent="0" />
        <mxCell id="8zU6O7tFe_Y5MRbsxIHe-1" value="&lt;div&gt;0&lt;/div&gt;Sistem Informasi Perpustakaan" style="ellipse;whiteSpace=wrap;html=1;aspect=fixed;" vertex="1" parent="1">
          <mxGeometry x="385" y="60" width="80" height="80" as="geometry" />
        </mxCell>
        <mxCell id="8zU6O7tFe_Y5MRbsxIHe-2" value="&lt;div&gt;1&lt;/div&gt;Login" style="ellipse;whiteSpace=wrap;html=1;aspect=fixed;" vertex="1" parent="1">
          <mxGeometry x="160" y="230" width="80" height="80" as="geometry" />
        </mxCell>
        <mxCell id="8zU6O7tFe_Y5MRbsxIHe-3" value="&lt;div&gt;2&lt;/div&gt;Pendaftraan Anggota" style="ellipse;whiteSpace=wrap;html=1;aspect=fixed;" vertex="1" parent="1">
          <mxGeometry x="300" y="230" width="80" height="80" as="geometry" />
        </mxCell>
        <mxCell id="8zU6O7tFe_Y5MRbsxIHe-4" value="&lt;div&gt;3&lt;/div&gt;Peminjaman Buku" style="ellipse;whiteSpace=wrap;html=1;aspect=fixed;" vertex="1" parent="1">
          <mxGeometry x="430" y="230" width="80" height="80" as="geometry" />
        </mxCell>
        <mxCell id="8zU6O7tFe_Y5MRbsxIHe-5" value="&lt;div&gt;4&lt;/div&gt;Pengembalian Buku" style="ellipse;whiteSpace=wrap;html=1;aspect=fixed;" vertex="1" parent="1">
          <mxGeometry x="560" y="230" width="80" height="80" as="geometry" />
        </mxCell>
        <mxCell id="8zU6O7tFe_Y5MRbsxIHe-6" value="" style="endArrow=none;html=1;rounded=0;entryX=0.5;entryY=1;entryDx=0;entryDy=0;" edge="1" parent="1" target="8zU6O7tFe_Y5MRbsxIHe-1">
          <mxGeometry width="50" height="50" relative="1" as="geometry">
            <mxPoint x="425" y="200" as="sourcePoint" />
            <mxPoint x="450" y="160" as="targetPoint" />
          </mxGeometry>
        </mxCell>
        <mxCell id="8zU6O7tFe_Y5MRbsxIHe-7" value="" style="endArrow=none;html=1;rounded=0;" edge="1" parent="1">
          <mxGeometry width="50" height="50" relative="1" as="geometry">
            <mxPoint x="200" y="200" as="sourcePoint" />
            <mxPoint x="600" y="200" as="targetPoint" />
          </mxGeometry>
        </mxCell>
        <mxCell id="8zU6O7tFe_Y5MRbsxIHe-9" value="" style="endArrow=classic;html=1;rounded=0;" edge="1" parent="1" target="8zU6O7tFe_Y5MRbsxIHe-2">
          <mxGeometry width="50" height="50" relative="1" as="geometry">
            <mxPoint x="200" y="200" as="sourcePoint" />
            <mxPoint x="450" y="160" as="targetPoint" />
          </mxGeometry>
        </mxCell>
        <mxCell id="8zU6O7tFe_Y5MRbsxIHe-10" value="" style="endArrow=classic;html=1;rounded=0;" edge="1" parent="1">
          <mxGeometry width="50" height="50" relative="1" as="geometry">
            <mxPoint x="339.7" y="200" as="sourcePoint" />
            <mxPoint x="339.7" y="230" as="targetPoint" />
          </mxGeometry>
        </mxCell>
        <mxCell id="8zU6O7tFe_Y5MRbsxIHe-11" value="" style="endArrow=classic;html=1;rounded=0;" edge="1" parent="1">
          <mxGeometry width="50" height="50" relative="1" as="geometry">
            <mxPoint x="465" y="200" as="sourcePoint" />
            <mxPoint x="465" y="230" as="targetPoint" />
          </mxGeometry>
        </mxCell>
        <mxCell id="8zU6O7tFe_Y5MRbsxIHe-12" value="" style="endArrow=classic;html=1;rounded=0;" edge="1" parent="1">
          <mxGeometry width="50" height="50" relative="1" as="geometry">
            <mxPoint x="600" y="200" as="sourcePoint" />
            <mxPoint x="600" y="230" as="targetPoint" />
          </mxGeometry>
        </mxCell>
      </root>
    </mxGraphModel>
  </diagram>
  <diagram id="u-dT_xXzQEbQ9zUuAr8F" name="Page-3">
    <mxGraphModel dx="2250" dy="696" grid="1" gridSize="10" guides="1" tooltips="1" connect="1" arrows="1" fold="1" page="1" pageScale="1" pageWidth="850" pageHeight="1100" math="0" shadow="0">
      <root>
        <mxCell id="0" />
        <mxCell id="1" parent="0" />
        <mxCell id="sANiC-_dOO1FPzhVyQQ8-1" value="Anggota" style="rounded=0;whiteSpace=wrap;html=1;" vertex="1" parent="1">
          <mxGeometry x="720" y="480" width="120" height="60" as="geometry" />
        </mxCell>
        <mxCell id="aGLFXDxUE55ugFGuE5Y1-1" value="Admin Sistem" style="rounded=0;whiteSpace=wrap;html=1;" vertex="1" parent="1">
          <mxGeometry x="70" y="430" width="120" height="60" as="geometry" />
        </mxCell>
        <mxCell id="e_LdIvp3GBFjRGdZ6ONl-1" value="&lt;div&gt;1&lt;/div&gt;Login" style="ellipse;whiteSpace=wrap;html=1;aspect=fixed;" vertex="1" parent="1">
          <mxGeometry x="350" y="120" width="80" height="80" as="geometry" />
        </mxCell>
        <mxCell id="e_LdIvp3GBFjRGdZ6ONl-2" value="&lt;div&gt;2&lt;/div&gt;Pendaftraan Anggota" style="ellipse;whiteSpace=wrap;html=1;aspect=fixed;" vertex="1" parent="1">
          <mxGeometry x="340" y="470" width="80" height="80" as="geometry" />
        </mxCell>
        <mxCell id="e_LdIvp3GBFjRGdZ6ONl-3" value="&lt;div&gt;3&lt;/div&gt;Peminjaman Buku" style="ellipse;whiteSpace=wrap;html=1;aspect=fixed;" vertex="1" parent="1">
          <mxGeometry x="330" y="750" width="80" height="80" as="geometry" />
        </mxCell>
        <mxCell id="e_LdIvp3GBFjRGdZ6ONl-4" value="&lt;div&gt;4&lt;/div&gt;Pengembalian Buku" style="ellipse;whiteSpace=wrap;html=1;aspect=fixed;" vertex="1" parent="1">
          <mxGeometry x="350" y="1070" width="80" height="80" as="geometry" />
        </mxCell>
        <mxCell id="e_LdIvp3GBFjRGdZ6ONl-5" value="" style="endArrow=classic;html=1;rounded=0;exitX=0;exitY=0.25;exitDx=0;exitDy=0;entryX=0;entryY=0.5;entryDx=0;entryDy=0;edgeStyle=orthogonalEdgeStyle;" edge="1" parent="1" source="aGLFXDxUE55ugFGuE5Y1-1" target="e_LdIvp3GBFjRGdZ6ONl-1">
          <mxGeometry width="50" height="50" relative="1" as="geometry">
            <mxPoint x="400" y="430" as="sourcePoint" />
            <mxPoint x="450" y="380" as="targetPoint" />
            <Array as="points">
              <mxPoint x="70" y="440" />
              <mxPoint x="20" y="440" />
              <mxPoint x="20" y="160" />
            </Array>
          </mxGeometry>
        </mxCell>
        <mxCell id="e_LdIvp3GBFjRGdZ6ONl-6" value="" style="endArrow=classic;html=1;rounded=0;exitX=0.07;exitY=0.265;exitDx=0;exitDy=0;exitPerimeter=0;entryX=0;entryY=1;entryDx=0;entryDy=0;edgeStyle=orthogonalEdgeStyle;" edge="1" parent="1" source="e_LdIvp3GBFjRGdZ6ONl-1" target="aGLFXDxUE55ugFGuE5Y1-1">
          <mxGeometry width="50" height="50" relative="1" as="geometry">
            <mxPoint x="400" y="430" as="sourcePoint" />
            <mxPoint x="450" y="380" as="targetPoint" />
            <Array as="points">
              <mxPoint x="-20" y="141" />
              <mxPoint x="-20" y="490" />
            </Array>
          </mxGeometry>
        </mxCell>
        <mxCell id="e_LdIvp3GBFjRGdZ6ONl-7" value="Data Username&lt;div&gt;&lt;span style=&quot;background-color: initial;&quot;&gt;Data Password&lt;/span&gt;&lt;/div&gt;" style="text;html=1;align=center;verticalAlign=middle;whiteSpace=wrap;rounded=0;" vertex="1" parent="1">
          <mxGeometry x="170" y="100" width="120" height="30" as="geometry" />
        </mxCell>
        <mxCell id="e_LdIvp3GBFjRGdZ6ONl-8" value="Info login&lt;div&gt;Info Hak Akses/level&lt;/div&gt;" style="text;html=1;align=center;verticalAlign=middle;whiteSpace=wrap;rounded=0;" vertex="1" parent="1">
          <mxGeometry x="170" y="160" width="120" height="30" as="geometry" />
        </mxCell>
        <mxCell id="e_LdIvp3GBFjRGdZ6ONl-9" value="" style="endArrow=classic;html=1;rounded=0;exitX=0.25;exitY=0;exitDx=0;exitDy=0;entryX=1;entryY=0.5;entryDx=0;entryDy=0;edgeStyle=orthogonalEdgeStyle;" edge="1" parent="1" source="sANiC-_dOO1FPzhVyQQ8-1" target="e_LdIvp3GBFjRGdZ6ONl-1">
          <mxGeometry width="50" height="50" relative="1" as="geometry">
            <mxPoint x="400" y="360" as="sourcePoint" />
            <mxPoint x="450" y="310" as="targetPoint" />
          </mxGeometry>
        </mxCell>
        <mxCell id="e_LdIvp3GBFjRGdZ6ONl-10" value="" style="endArrow=classic;html=1;rounded=0;exitX=1;exitY=0;exitDx=0;exitDy=0;entryX=0.75;entryY=0;entryDx=0;entryDy=0;edgeStyle=orthogonalEdgeStyle;" edge="1" parent="1" source="e_LdIvp3GBFjRGdZ6ONl-1" target="sANiC-_dOO1FPzhVyQQ8-1">
          <mxGeometry width="50" height="50" relative="1" as="geometry">
            <mxPoint x="400" y="360" as="sourcePoint" />
            <mxPoint x="450" y="310" as="targetPoint" />
          </mxGeometry>
        </mxCell>
        <mxCell id="e_LdIvp3GBFjRGdZ6ONl-11" value="Data Username&lt;div&gt;&lt;span style=&quot;background-color: initial;&quot;&gt;Data Password&lt;/span&gt;&lt;/div&gt;" style="text;html=1;align=center;verticalAlign=middle;whiteSpace=wrap;rounded=0;" vertex="1" parent="1">
          <mxGeometry x="460" y="170" width="120" height="30" as="geometry" />
        </mxCell>
        <mxCell id="e_LdIvp3GBFjRGdZ6ONl-12" value="Info login&lt;div&gt;Info Hak Akses/level&lt;/div&gt;" style="text;html=1;align=center;verticalAlign=middle;whiteSpace=wrap;rounded=0;" vertex="1" parent="1">
          <mxGeometry x="460" y="90" width="120" height="30" as="geometry" />
        </mxCell>
        <mxCell id="e_LdIvp3GBFjRGdZ6ONl-13" value="" style="endArrow=classic;html=1;rounded=0;exitX=0;exitY=0.5;exitDx=0;exitDy=0;entryX=1;entryY=0.5;entryDx=0;entryDy=0;" edge="1" parent="1" source="sANiC-_dOO1FPzhVyQQ8-1" target="e_LdIvp3GBFjRGdZ6ONl-2">
          <mxGeometry width="50" height="50" relative="1" as="geometry">
            <mxPoint x="400" y="360" as="sourcePoint" />
            <mxPoint x="450" y="310" as="targetPoint" />
          </mxGeometry>
        </mxCell>
        <mxCell id="e_LdIvp3GBFjRGdZ6ONl-14" value="" style="endArrow=classic;html=1;rounded=0;exitX=1;exitY=1;exitDx=0;exitDy=0;entryX=0;entryY=1;entryDx=0;entryDy=0;" edge="1" parent="1" source="e_LdIvp3GBFjRGdZ6ONl-2" target="sANiC-_dOO1FPzhVyQQ8-1">
          <mxGeometry width="50" height="50" relative="1" as="geometry">
            <mxPoint x="400" y="360" as="sourcePoint" />
            <mxPoint x="450" y="310" as="targetPoint" />
          </mxGeometry>
        </mxCell>
        <mxCell id="e_LdIvp3GBFjRGdZ6ONl-15" value="&lt;div&gt;Data ID_PEMINJAM&amp;nbsp;&amp;nbsp;&lt;/div&gt;&lt;div&gt;&lt;span style=&quot;white-space: normal;&quot;&gt;Data JENIS_ID&amp;nbsp;&lt;/span&gt;&lt;/div&gt;&lt;div&gt;&lt;span style=&quot;white-space: normal;&quot;&gt;Data NAME&amp;nbsp;&lt;/span&gt;&lt;/div&gt;&lt;div&gt;&lt;span style=&quot;white-space: normal;&quot;&gt;Data UMUR&amp;nbsp;&lt;/span&gt;&lt;/div&gt;&lt;div&gt;&lt;span style=&quot;white-space: normal;&quot;&gt;Data Alamat&amp;nbsp;&lt;/span&gt;&lt;/div&gt;&lt;div&gt;&lt;span style=&quot;white-space: normal;&quot;&gt;Data Provinsi&amp;nbsp;&lt;/span&gt;&lt;/div&gt;&lt;div&gt;Data KECAMATAN&amp;nbsp;&lt;/div&gt;&lt;div&gt;Data KABUPATEN&amp;nbsp;&lt;/div&gt;&lt;div&gt;Data RT&lt;/div&gt;&lt;div&gt;Data RW&lt;/div&gt;&lt;div&gt;Data foto_anggota&lt;/div&gt;&lt;div&gt;Data foto_identitas&lt;/div&gt;&lt;div&gt;&lt;span style=&quot;white-space: normal;&quot;&gt;Data NOTEL&amp;nbsp;&lt;/span&gt;&lt;/div&gt;&lt;div&gt;&lt;span style=&quot;white-space: normal;&quot;&gt;Data TNGGAL_LAHIR&amp;nbsp;&lt;/span&gt;&lt;/div&gt;&lt;div&gt;&lt;span style=&quot;white-space: normal;&quot;&gt;Data TMPT_LAHIR&amp;nbsp;&lt;/span&gt;&lt;/div&gt;&lt;div&gt;&lt;span style=&quot;white-space: normal;&quot;&gt;Data JENIS_KEL&lt;/span&gt;&lt;/div&gt;&lt;div&gt;&lt;span style=&quot;white-space: normal;&quot;&gt;Data STATUS_ANGGOTA&lt;/span&gt;&lt;/div&gt;&lt;div&gt;&lt;span style=&quot;white-space: normal;&quot;&gt;Data VCREA&lt;/span&gt;&lt;/div&gt;&lt;div&gt;&lt;span style=&quot;white-space: normal;&quot;&gt;Data DCREA&lt;/span&gt;&lt;/div&gt;" style="text;html=1;align=center;verticalAlign=middle;whiteSpace=wrap;rounded=0;" vertex="1" parent="1">
          <mxGeometry x="430" y="310" width="260" height="140" as="geometry" />
        </mxCell>
        <mxCell id="q17xaUUNVpWD-jcwNarp-1" style="edgeStyle=orthogonalEdgeStyle;rounded=0;orthogonalLoop=1;jettySize=auto;html=1;exitX=0.5;exitY=1;exitDx=0;exitDy=0;" edge="1" parent="1" source="e_LdIvp3GBFjRGdZ6ONl-15" target="e_LdIvp3GBFjRGdZ6ONl-15">
          <mxGeometry relative="1" as="geometry" />
        </mxCell>
        <mxCell id="q17xaUUNVpWD-jcwNarp-2" value="Info&amp;nbsp; ID anggota (username)&lt;div&gt;Info Hak Akses/Level&lt;/div&gt;&lt;div&gt;Info Password&lt;/div&gt;&lt;div&gt;&lt;br&gt;&lt;/div&gt;" style="text;html=1;align=center;verticalAlign=middle;whiteSpace=wrap;rounded=0;" vertex="1" parent="1">
          <mxGeometry x="490" y="560" width="120" height="30" as="geometry" />
        </mxCell>
        <mxCell id="q17xaUUNVpWD-jcwNarp-3" value="" style="endArrow=classic;html=1;rounded=0;exitX=0.25;exitY=1;exitDx=0;exitDy=0;entryX=0.94;entryY=0.365;entryDx=0;entryDy=0;entryPerimeter=0;edgeStyle=orthogonalEdgeStyle;" edge="1" parent="1" source="sANiC-_dOO1FPzhVyQQ8-1" target="e_LdIvp3GBFjRGdZ6ONl-3">
          <mxGeometry width="50" height="50" relative="1" as="geometry">
            <mxPoint x="610" y="730" as="sourcePoint" />
            <mxPoint x="660" y="680" as="targetPoint" />
            <Array as="points">
              <mxPoint x="750" y="800" />
              <mxPoint x="405" y="800" />
            </Array>
          </mxGeometry>
        </mxCell>
        <mxCell id="q17xaUUNVpWD-jcwNarp-4" value="&lt;div&gt;Data Buku&lt;/div&gt;&lt;div&gt;Data Tanggal Peminjam&lt;/div&gt;&lt;div&gt;Data Tanggal Pengembalian&lt;/div&gt;&lt;div&gt;Data ID Anggota&lt;/div&gt;&lt;div&gt;Data Jumlah Buku&lt;/div&gt;&lt;div&gt;&lt;br&gt;&lt;/div&gt;" style="text;html=1;align=center;verticalAlign=middle;whiteSpace=wrap;rounded=0;" vertex="1" parent="1">
          <mxGeometry x="460" y="740" width="170" height="30" as="geometry" />
        </mxCell>
        <mxCell id="q17xaUUNVpWD-jcwNarp-5" value="" style="endArrow=classic;html=1;rounded=0;exitX=0.75;exitY=1;exitDx=0;exitDy=0;entryX=0.01;entryY=0.425;entryDx=0;entryDy=0;entryPerimeter=0;edgeStyle=orthogonalEdgeStyle;" edge="1" parent="1" source="aGLFXDxUE55ugFGuE5Y1-1" target="e_LdIvp3GBFjRGdZ6ONl-3">
          <mxGeometry width="50" height="50" relative="1" as="geometry">
            <mxPoint x="510" y="570" as="sourcePoint" />
            <mxPoint x="560" y="520" as="targetPoint" />
            <Array as="points">
              <mxPoint x="160" y="800" />
              <mxPoint x="331" y="800" />
            </Array>
          </mxGeometry>
        </mxCell>
        <mxCell id="q17xaUUNVpWD-jcwNarp-6" value="&lt;div&gt;Data Buku&lt;/div&gt;&lt;div&gt;Data Tanggal Peminjam&lt;/div&gt;&lt;div&gt;Data Tanggal Pengembalian&lt;/div&gt;&lt;div&gt;Data ID Anggota&lt;/div&gt;&lt;div&gt;Data Jumlah Buku&lt;/div&gt;&lt;div&gt;&lt;br&gt;&lt;/div&gt;" style="text;html=1;align=center;verticalAlign=middle;whiteSpace=wrap;rounded=0;" vertex="1" parent="1">
          <mxGeometry x="160" y="740" width="170" height="30" as="geometry" />
        </mxCell>
        <mxCell id="q17xaUUNVpWD-jcwNarp-7" value="" style="endArrow=classic;html=1;rounded=0;exitX=0.96;exitY=0.735;exitDx=0;exitDy=0;exitPerimeter=0;edgeStyle=orthogonalEdgeStyle;" edge="1" parent="1" source="e_LdIvp3GBFjRGdZ6ONl-3">
          <mxGeometry width="50" height="50" relative="1" as="geometry">
            <mxPoint x="510" y="570" as="sourcePoint" />
            <mxPoint x="770" y="542" as="targetPoint" />
            <Array as="points">
              <mxPoint x="760" y="809" />
              <mxPoint x="760" y="542" />
            </Array>
          </mxGeometry>
        </mxCell>
        <mxCell id="q17xaUUNVpWD-jcwNarp-8" value="&lt;div&gt;Info Buku&lt;/div&gt;&lt;div&gt;Info Tanggal Peminjam&lt;/div&gt;&lt;div&gt;Info Tanggal Pengembalian&lt;/div&gt;&lt;div&gt;Info ID Anggota&lt;/div&gt;&lt;div&gt;Info Jumlah Buku&lt;/div&gt;&lt;div&gt;&lt;br&gt;&lt;/div&gt;" style="text;html=1;align=center;verticalAlign=middle;whiteSpace=wrap;rounded=0;" vertex="1" parent="1">
          <mxGeometry x="450" y="850" width="170" height="30" as="geometry" />
        </mxCell>
        <mxCell id="q17xaUUNVpWD-jcwNarp-9" value="" style="endArrow=classic;html=1;rounded=0;exitX=0.07;exitY=0.845;exitDx=0;exitDy=0;exitPerimeter=0;edgeStyle=orthogonalEdgeStyle;" edge="1" parent="1" source="e_LdIvp3GBFjRGdZ6ONl-3">
          <mxGeometry width="50" height="50" relative="1" as="geometry">
            <mxPoint x="510" y="570" as="sourcePoint" />
            <mxPoint x="150" y="490" as="targetPoint" />
            <Array as="points">
              <mxPoint x="150" y="818" />
              <mxPoint x="150" y="490" />
            </Array>
          </mxGeometry>
        </mxCell>
        <mxCell id="q17xaUUNVpWD-jcwNarp-10" value="&lt;div&gt;Info Buku&lt;/div&gt;&lt;div&gt;Info Tanggal Peminjam&lt;/div&gt;&lt;div&gt;Info Tanggal Pengembalian&lt;/div&gt;&lt;div&gt;Info ID Anggota&lt;/div&gt;&lt;div&gt;Info Jumlah Buku&lt;/div&gt;&lt;div&gt;&lt;br&gt;&lt;/div&gt;" style="text;html=1;align=center;verticalAlign=middle;whiteSpace=wrap;rounded=0;" vertex="1" parent="1">
          <mxGeometry x="150" y="850" width="170" height="30" as="geometry" />
        </mxCell>
        <mxCell id="q17xaUUNVpWD-jcwNarp-12" value="MST_ANGGOTA" style="html=1;dashed=0;whiteSpace=wrap;shape=partialRectangle;right=0;" vertex="1" parent="1">
          <mxGeometry x="970" y="220" width="100" height="30" as="geometry" />
        </mxCell>
        <mxCell id="q17xaUUNVpWD-jcwNarp-13" value="&lt;div&gt;Data Buku&lt;/div&gt;&lt;div&gt;Data Tanggal Peminjam&lt;/div&gt;&lt;div&gt;Data Tanggal Pengembalian&lt;/div&gt;&lt;div&gt;Data ID Anggota&lt;/div&gt;&lt;div&gt;&lt;br&gt;&lt;/div&gt;" style="text;html=1;align=center;verticalAlign=middle;whiteSpace=wrap;rounded=0;" vertex="1" parent="1">
          <mxGeometry x="475" y="1060" width="170" height="30" as="geometry" />
        </mxCell>
        <mxCell id="q17xaUUNVpWD-jcwNarp-14" value="" style="endArrow=classic;html=1;rounded=0;exitX=0.75;exitY=1;exitDx=0;exitDy=0;entryX=1;entryY=0.5;entryDx=0;entryDy=0;edgeStyle=orthogonalEdgeStyle;" edge="1" parent="1" source="sANiC-_dOO1FPzhVyQQ8-1" target="e_LdIvp3GBFjRGdZ6ONl-4">
          <mxGeometry width="50" height="50" relative="1" as="geometry">
            <mxPoint x="870" y="760" as="sourcePoint" />
            <mxPoint x="560" y="930" as="targetPoint" />
          </mxGeometry>
        </mxCell>
        <mxCell id="q17xaUUNVpWD-jcwNarp-15" value="" style="endArrow=classic;html=1;rounded=0;exitX=1;exitY=1;exitDx=0;exitDy=0;entryX=1;entryY=1;entryDx=0;entryDy=0;edgeStyle=orthogonalEdgeStyle;" edge="1" parent="1" source="e_LdIvp3GBFjRGdZ6ONl-4" target="sANiC-_dOO1FPzhVyQQ8-1">
          <mxGeometry width="50" height="50" relative="1" as="geometry">
            <mxPoint x="510" y="920" as="sourcePoint" />
            <mxPoint x="560" y="870" as="targetPoint" />
          </mxGeometry>
        </mxCell>
        <mxCell id="q17xaUUNVpWD-jcwNarp-16" value="&lt;div&gt;Info Denda&lt;/div&gt;" style="text;html=1;align=center;verticalAlign=middle;whiteSpace=wrap;rounded=0;" vertex="1" parent="1">
          <mxGeometry x="460" y="1150" width="170" height="30" as="geometry" />
        </mxCell>
        <mxCell id="q17xaUUNVpWD-jcwNarp-17" value="" style="endArrow=classic;html=1;rounded=0;exitX=0.5;exitY=1;exitDx=0;exitDy=0;entryX=0;entryY=0.5;entryDx=0;entryDy=0;edgeStyle=orthogonalEdgeStyle;" edge="1" parent="1" source="aGLFXDxUE55ugFGuE5Y1-1" target="e_LdIvp3GBFjRGdZ6ONl-4">
          <mxGeometry width="50" height="50" relative="1" as="geometry">
            <mxPoint x="510" y="920" as="sourcePoint" />
            <mxPoint x="560" y="870" as="targetPoint" />
          </mxGeometry>
        </mxCell>
        <mxCell id="q17xaUUNVpWD-jcwNarp-18" value="&lt;div&gt;Data Transaksi&lt;/div&gt;&lt;div&gt;Data Tanggal Peminjam&lt;/div&gt;&lt;div&gt;Data Tanggal Pengembalian&lt;/div&gt;&lt;div&gt;&lt;br&gt;&lt;/div&gt;" style="text;html=1;align=center;verticalAlign=middle;whiteSpace=wrap;rounded=0;" vertex="1" parent="1">
          <mxGeometry x="180" y="1060" width="170" height="30" as="geometry" />
        </mxCell>
        <mxCell id="q17xaUUNVpWD-jcwNarp-19" value="" style="endArrow=classic;html=1;rounded=0;exitX=0;exitY=1;exitDx=0;exitDy=0;entryX=0.25;entryY=1;entryDx=0;entryDy=0;edgeStyle=orthogonalEdgeStyle;" edge="1" parent="1" source="e_LdIvp3GBFjRGdZ6ONl-4" target="aGLFXDxUE55ugFGuE5Y1-1">
          <mxGeometry width="50" height="50" relative="1" as="geometry">
            <mxPoint x="90" y="790" as="sourcePoint" />
            <mxPoint x="50" y="780" as="targetPoint" />
          </mxGeometry>
        </mxCell>
        <mxCell id="q17xaUUNVpWD-jcwNarp-20" value="&lt;div&gt;Info Denda&lt;/div&gt;" style="text;html=1;align=center;verticalAlign=middle;whiteSpace=wrap;rounded=0;" vertex="1" parent="1">
          <mxGeometry x="180" y="1150" width="170" height="30" as="geometry" />
        </mxCell>
      </root>
    </mxGraphModel>
  </diagram>
</mxfile>
